<?xml version="1.0" standalone="no"?>
<!DOCTYPE svg PUBLIC "-//W3C//DTD SVG 20010904//EN"
 "http://www.w3.org/TR/2001/REC-SVG-20010904/DTD/svg10.dtd">
<svg version="1.0" xmlns="http://www.w3.org/2000/svg"
 width="512.000000pt" height="512.000000pt" viewBox="0 0 512.000000 512.000000"
 preserveAspectRatio="xMidYMid meet">
<metadata>
Created by potrace 1.14, written by Peter Selinger 2001-2017
</metadata>
<g transform="translate(0.000000,512.000000) scale(0.100000,-0.100000)"
fill="#000000" stroke="none">
<path d="M1085 4775 l0 -345 115 0 116 0 -1 115 -1 115 106 0 106 0 -1 -102
c-1 -57 1 -109 3 -115 3 -10 35 -13 116 -13 l111 0 0 345 0 345 -115 0 -115 0
0 -112 0 -113 -105 0 -105 0 0 113 0 112 -115 0 -115 0 0 -345z"/>
<path d="M1859 5098 c-1 -27 -1 -190 0 -200 1 -5 46 -8 101 -8 l100 0 0 -230
0 -230 115 0 115 0 0 230 0 230 103 0 102 0 0 112 -1 113 -317 3 -317 2 -1
-22z"/>
<path d="M2597 5113 c-2 -5 -3 -159 -3 -343 l1 -335 112 -3 113 -3 2 168 3
168 50 -75 c58 -88 70 -107 86 -137 7 -13 15 -23 18 -23 4 0 40 51 81 114 41
63 77 111 80 106 3 -4 4 -78 3 -164 l-2 -157 116 3 116 3 -1 315 c0 173 -1
327 -1 343 l-1 27 -119 0 -120 0 -65 -107 c-36 -60 -69 -114 -74 -121 -7 -10
-30 20 -83 107 l-73 121 -117 0 c-65 0 -120 -3 -122 -7z"/>
<path d="M3489 5113 c-1 -11 -1 -644 0 -665 1 -17 21 -18 276 -18 255 0 275 1
276 18 1 22 1 171 0 194 -1 15 -15 17 -128 17 -71 -1 -144 0 -163 0 l-35 1 1
230 1 230 -113 0 c-63 0 -114 -3 -115 -7z"/>
<path d="M755 4030 c3 -47 8 -101 9 -120 2 -19 7 -71 10 -115 4 -44 9 -96 11
-115 2 -19 7 -71 10 -115 3 -44 8 -91 10 -105 2 -14 6 -65 10 -115 3 -49 8
-101 10 -115 2 -14 7 -61 10 -105 3 -44 8 -100 10 -125 2 -25 7 -74 10 -110 2
-36 7 -85 9 -110 3 -25 8 -76 11 -115 3 -38 8 -86 10 -105 2 -19 7 -71 10
-115 3 -44 8 -98 10 -120 5 -42 11 -106 20 -220 3 -38 8 -83 10 -100 2 -16 7
-75 10 -130 4 -55 9 -108 11 -118 1 -9 6 -56 9 -105 4 -48 8 -98 10 -112 2
-14 7 -56 10 -95 3 -38 8 -92 10 -120 2 -27 7 -84 10 -125 7 -81 11 -125 20
-210 3 -30 7 -84 10 -120 3 -36 7 -81 10 -100 2 -19 7 -75 10 -124 4 -50 9
-98 10 -108 2 -11 5 -43 6 -72 l2 -54 126 -36 c153 -43 1048 -291 1146 -317
39 -10 103 -28 143 -39 l73 -19 122 33 c67 19 181 51 252 71 108 30 216 60
295 80 39 10 710 197 756 211 32 9 55 22 58 32 3 9 7 55 11 102 3 47 8 99 10
115 2 17 7 71 10 120 4 50 8 104 11 120 4 30 14 139 19 205 6 87 17 215 20
229 1 9 6 60 10 115 3 54 8 106 10 115 1 9 6 54 10 101 4 47 9 103 11 125 2
22 6 72 9 110 3 39 8 86 10 105 2 19 7 73 10 119 4 46 8 91 10 100 1 9 6 61
10 116 4 55 8 106 10 115 1 8 6 58 10 110 4 52 9 111 10 130 8 87 25 268 30
320 2 19 6 69 10 110 3 41 8 91 10 110 2 19 7 73 10 120 3 47 8 101 10 120 3
19 7 64 10 100 7 89 15 178 20 220 2 19 7 78 11 130 3 52 10 117 14 143 5 31
3 50 -4 54 -6 4 -822 7 -1814 8 l-1804 0 7 -85z"/>
</g>
</svg>
